<svg width="64" height="65" viewBox="0 0 64 65" fill="none" xmlns="http://www.w3.org/2000/svg">
<path d="M55.0106 12.9344H0V0.74585H55.0106V12.9344ZM27.5053 49.5001C27.5053 51.6331 27.8415 53.6747 28.4221 55.5944H3.05614V15.9816H51.9544V28.4139C50.9459 28.2615 49.9374 28.1701 48.8983 28.1701C37.071 28.1701 27.5053 37.7077 27.5053 49.5001ZM36.6737 31.2173V26.6466C36.6737 25.7934 36.0014 25.123 35.1457 25.123H19.8649C19.0092 25.123 18.3369 25.7934 18.3369 26.6466V31.2173H36.6737ZM63.5678 53.7661C63.8734 53.7661 63.8734 54.0708 63.5678 54.3756L60.5117 59.5557C60.206 59.8604 59.9004 59.8604 59.5948 59.8604L55.9274 58.6416C55.0106 59.251 54.3994 59.5557 53.4825 60.1651L52.8713 64.1264C52.8713 64.4311 52.5657 64.7358 52.2601 64.7358H46.1478C45.8422 64.7358 45.5365 64.4311 45.2309 64.1264L44.6197 60.1651C43.7029 59.8604 42.786 59.251 42.1748 58.6416L38.5074 60.1651C38.2018 60.1651 37.8962 60.1651 37.5906 59.8604L34.5344 54.6803C34.2288 54.3756 34.5344 54.0708 34.84 53.7661L38.2018 51.3284V48.2813L34.84 45.8436C34.5344 45.5388 34.5344 45.2341 34.5344 44.9294L37.5906 39.7493C37.8962 39.4446 38.2018 39.4446 38.5074 39.4446L42.1748 40.9681C43.0916 40.3587 43.7029 40.054 44.6197 39.4446L45.2309 35.4833C45.2309 35.1786 45.5365 34.8738 46.1478 34.8738H52.2601C52.5657 34.8738 52.8713 35.1786 52.8713 35.4833L53.4825 39.4446C54.3994 39.7493 55.3162 40.3587 56.233 40.9681L59.9004 39.4446C60.206 39.4446 60.8173 39.4446 60.8173 39.7493L63.8734 44.9294C64.179 45.2341 63.8734 45.5388 63.5678 45.8436L60.206 48.2813V51.3284L63.5678 53.7661ZM53.4825 49.5001C53.4825 47.0624 51.3432 44.9294 48.8983 44.9294C46.4534 44.9294 44.3141 47.0624 44.3141 49.5001C44.3141 51.9378 46.4534 54.0708 48.8983 54.0708C51.3432 54.0708 53.4825 51.9378 53.4825 49.5001Z" fill="#FFB800"/>
</svg>
