<svg width="69" height="69" viewBox="0 0 69 69" fill="none" xmlns="http://www.w3.org/2000/svg">
<path d="M34.5 34.5C35.8427 34.5 37.1303 35.0334 38.0797 35.9828C39.0291 36.9322 39.5625 38.2198 39.5625 39.5625C39.5625 40.9052 39.0291 42.1928 38.0797 43.1422C37.1303 44.0916 35.8427 44.625 34.5 44.625C33.1573 44.625 31.8697 44.0916 30.9203 43.1422C29.9709 42.1928 29.4375 40.9052 29.4375 39.5625C29.4375 38.2198 29.9709 36.9322 30.9203 35.9828C31.8697 35.0334 33.1573 34.5 34.5 34.5ZM34.5 0.75C38.9321 0.75 43.3208 1.62297 47.4156 3.31907C51.5103 5.01516 55.2309 7.50117 58.3649 10.6351C61.4988 13.7691 63.9848 17.4897 65.6809 21.5844C67.377 25.6792 68.25 30.0679 68.25 34.5C68.25 43.4511 64.6942 52.0355 58.3649 58.3649C52.0355 64.6942 43.4511 68.25 34.5 68.25C30.0679 68.25 25.6792 67.377 21.5844 65.6809C17.4897 63.9848 13.7691 61.4988 10.6351 58.3649C4.30579 52.0355 0.75 43.4511 0.75 34.5C0.75 25.5489 4.30579 16.9645 10.6351 10.6351C16.9645 4.30579 25.5489 0.75 34.5 0.75V0.75ZM34.5 48C36.93 48 39.225 48.5063 41.385 49.6875C43.545 50.7 44.625 52.05 44.625 53.6363V59.5087C49.1475 57.4837 51.375 55.02 51.375 52.05V37.2C51.375 34.5 49.6875 32.3063 46.1437 30.45C42.6 28.6275 38.7188 27.75 34.5 27.75C30.2812 27.75 26.4 28.6275 22.8563 30.45C19.3125 32.3063 17.625 34.5 17.625 37.2V52.05C17.625 54.75 19.4138 57.0787 23.1263 58.8675C26.805 60.6562 30.585 61.5 34.5 61.5L37.875 61.23V54.4462L34.5 54.75C31.125 54.75 27.75 54.075 24.5438 52.6912C24.9488 51.375 26.1638 50.3287 28.1888 49.3837C30.18 48.4387 32.2725 48 34.5 48ZM34.5 7.5C32.2622 7.5 30.1161 8.38895 28.5338 9.97129C26.9514 11.5536 26.0625 13.6997 26.0625 15.9375C26.0625 18.1753 26.9514 20.3214 28.5338 21.9037C30.1161 23.4861 32.2622 24.375 34.5 24.375C36.7378 24.375 38.8839 23.4861 40.4662 21.9037C42.0486 20.3214 42.9375 18.1753 42.9375 15.9375C42.9375 13.6997 42.0486 11.5536 40.4662 9.97129C38.8839 8.38895 36.7378 7.5 34.5 7.5V7.5Z" fill="#FFB800"/>
</svg>
