<svg width="111" height="102" viewBox="0 0 111 102" fill="none" xmlns="http://www.w3.org/2000/svg">
<path d="M55.5 -0.00012207C24.8482 -0.00012207 0 22.8333 0 50.9999C0 79.1664 24.8482 102 55.5 102C86.1518 102 111 79.1664 111 50.9999C111 22.8333 86.1518 -0.00012207 55.5 -0.00012207ZM51.2521 24.0057L53.6369 34.0975C46.6493 35.5188 40.2239 37.3673 40.7442 44.5378H48.9554V71.395H24.2203V46.2933C24.2291 26.3446 40.1674 24.7215 51.2521 24.0057ZM84.3882 24.0057L86.7797 34.0975C79.7922 35.5188 73.3667 37.3673 73.8871 44.5378H82.0983V71.395H57.3631V46.2933C57.3718 26.3446 73.3035 24.7215 84.3882 24.0057Z" fill="#FFB800" fill-opacity="0.34"/>
</svg>
