<svg width="65" height="65" viewBox="0 0 65 65" fill="none" xmlns="http://www.w3.org/2000/svg">
<g clip-path="url(#clip0_16_61)">
<path d="M65 28.8438C65 22.75 59.3125 20.3125 56.0625 20.3125H47.125C48.75 16.25 49.9688 11.375 49.1562 7.71875C47.125 0.40625 41.0312 0 39 0H38.5938C36.9688 0 36.1562 0.8125 35.3438 2.03125L31.2812 13.4062L20.3125 24.375H0V60.9375H20.3125V56.875C21.125 56.875 23.1562 58.0938 25.1875 59.3125C30.0625 61.75 36.9688 65.4062 43.4688 65.4062C53.2188 65.4062 56.4688 64.1875 58.9062 60.125C60.125 57.6875 60.125 55.6562 60.125 54.4375C60.9375 53.625 62.1562 52.4062 62.5625 50.375C62.9688 48.3438 62.9688 47.125 62.5625 45.9062C63.375 44.6875 64.1875 43.0625 64.5938 40.625C64.5938 38.5938 64.1875 36.9688 63.7812 35.75C64.1875 34.125 65 32.0938 65 28.8438ZM10.1562 54.8438C7.71875 54.8438 6.09375 53.2188 6.09375 50.7812C6.09375 48.3438 7.71875 46.7188 10.1562 46.7188C12.5938 46.7188 14.2188 48.3438 14.2188 50.7812C14.2188 53.2188 12.5938 54.8438 10.1562 54.8438ZM59.7188 36.9688C59.7188 36.9688 60.5312 37.7812 60.5312 39.8125C60.5312 42.25 58.9062 43.4688 58.9062 43.4688L57.6875 44.6875L58.5 45.9062C58.5 45.9062 59.3125 47.125 58.5 48.75C58.0938 50.375 56.4688 51.5938 56.4688 51.5938L55.25 52.8125L56.0625 54.4375C56.0625 54.4375 56.875 56.0625 55.6562 58.0938C54.8438 59.7188 54.0312 60.9375 43.875 60.9375C38.1875 60.9375 31.6875 57.6875 27.2188 55.25C23.9688 53.625 21.9375 52.8125 20.3125 52.8125V28.4375H20.7188C21.5312 28.4375 22.3438 28.0312 23.1562 27.625L34.5312 16.25C34.9375 15.8438 34.9375 15.4375 35.3438 15.0312L39.4062 4.0625C41.4375 4.0625 44.2812 4.875 45.0938 8.53125C45.5 10.9688 44.6875 15.0312 42.6562 19.9062C42.25 21.125 42.25 21.9375 43.0625 23.1562C43.4688 23.9688 44.6875 24.375 45.9062 24.375H56.0625C56.4688 24.375 60.9375 25.1875 60.9375 28.8438C60.9375 32.0938 59.7188 33.7188 59.7188 33.7188L58.5 35.3438L59.7188 36.9688Z" fill="white"/>
</g>
<defs>
<clipPath id="clip0_16_61">
<rect width="65" height="65" rx="14" fill="white"/>
</clipPath>
</defs>
</svg>
