<svg width="61" height="61" viewBox="0 0 61 61" fill="none" xmlns="http://www.w3.org/2000/svg">
<circle cx="30.5002" cy="30.5" r="30.5" fill="#FFB800"/>
<path d="M17.0352 30.375C17.0352 27.7377 17.5412 25.66 18.5532 24.142C19.5806 22.624 21.2289 21.865 23.4982 21.865C25.7676 21.865 27.4082 22.624 28.4202 24.142C29.4476 25.66 29.9612 27.7377 29.9612 30.375C29.9612 33.043 29.4476 35.136 28.4202 36.654C27.4082 38.172 25.7676 38.931 23.4982 38.931C21.2289 38.931 19.5806 38.172 18.5532 36.654C17.5412 35.136 17.0352 33.043 17.0352 30.375ZM26.0972 30.375C26.0972 28.8263 25.9286 27.638 25.5912 26.81C25.2539 25.9667 24.5562 25.545 23.4982 25.545C22.4402 25.545 21.7426 25.9667 21.4052 26.81C21.0679 27.638 20.8992 28.8263 20.8992 30.375C20.8992 31.4177 20.9606 32.284 21.0832 32.974C21.2059 33.6487 21.4512 34.2007 21.8192 34.63C22.2026 35.044 22.7622 35.251 23.4982 35.251C24.2342 35.251 24.7862 35.044 25.1542 34.63C25.5376 34.2007 25.7906 33.6487 25.9132 32.974C26.0359 32.284 26.0972 31.4177 26.0972 30.375ZM32.1772 26.948C32.2385 25.3073 32.7752 24.0423 33.7872 23.153C34.7992 22.2637 36.1715 21.819 37.9042 21.819C39.0542 21.819 40.0355 22.0183 40.8482 22.417C41.6762 22.8157 42.2972 23.36 42.7112 24.05C43.1405 24.74 43.3552 25.5143 43.3552 26.373C43.3552 27.385 43.1022 28.213 42.5962 28.857C42.0902 29.4857 41.4998 29.915 40.8252 30.145V30.237C41.6992 30.5283 42.3892 31.0113 42.8952 31.686C43.4012 32.3607 43.6542 33.227 43.6542 34.285C43.6542 35.2357 43.4318 36.079 42.9872 36.815C42.5578 37.5357 41.9215 38.103 41.0782 38.517C40.2502 38.931 39.2612 39.138 38.1112 39.138C36.2712 39.138 34.7992 38.6857 33.6952 37.781C32.6065 36.8763 32.0315 35.5117 31.9702 33.687H35.7882C35.8035 34.3617 35.9952 34.8983 36.3632 35.297C36.7312 35.6803 37.2678 35.872 37.9732 35.872C38.5712 35.872 39.0312 35.7033 39.3532 35.366C39.6905 35.0133 39.8592 34.5533 39.8592 33.986C39.8592 33.25 39.6215 32.721 39.1462 32.399C38.6862 32.0617 37.9425 31.893 36.9152 31.893H36.1792V28.696H36.9152C37.6972 28.696 38.3258 28.5657 38.8012 28.305C39.2918 28.029 39.5372 27.546 39.5372 26.856C39.5372 26.304 39.3838 25.8747 39.0772 25.568C38.7705 25.2613 38.3488 25.108 37.8122 25.108C37.2295 25.108 36.7925 25.2843 36.5012 25.637C36.2252 25.9897 36.0642 26.4267 36.0182 26.948H32.1772Z" fill="white"/>
</svg>
