<svg width="61" height="61" viewBox="0 0 61 61" fill="none" xmlns="http://www.w3.org/2000/svg">
<circle cx="30.5" cy="30.5" r="30.5" fill="#FFB800"/>
<path d="M20.035 30.375C20.035 27.7377 20.541 25.66 21.553 24.142C22.5803 22.624 24.2287 21.865 26.498 21.865C28.7673 21.865 30.408 22.624 31.42 24.142C32.4473 25.66 32.961 27.7377 32.961 30.375C32.961 33.043 32.4473 35.136 31.42 36.654C30.408 38.172 28.7673 38.931 26.498 38.931C24.2287 38.931 22.5803 38.172 21.553 36.654C20.541 35.136 20.035 33.043 20.035 30.375ZM29.097 30.375C29.097 28.8263 28.9283 27.638 28.591 26.81C28.2537 25.9667 27.556 25.545 26.498 25.545C25.44 25.545 24.7423 25.9667 24.405 26.81C24.0677 27.638 23.899 28.8263 23.899 30.375C23.899 31.4177 23.9603 32.284 24.083 32.974C24.2057 33.6487 24.451 34.2007 24.819 34.63C25.2023 35.044 25.762 35.251 26.498 35.251C27.234 35.251 27.786 35.044 28.154 34.63C28.5373 34.2007 28.7903 33.6487 28.913 32.974C29.0357 32.284 29.097 31.4177 29.097 30.375ZM34.6249 25.867V22.21H40.9959V39H36.9019V25.867H34.6249Z" fill="white"/>
</svg>
