<svg width="61" height="61" viewBox="0 0 61 61" fill="none" xmlns="http://www.w3.org/2000/svg">
<circle cx="30.5" cy="30.5" r="30.5" fill="#FFB800"/>
<path d="M17.035 30.375C17.035 27.7377 17.541 25.66 18.553 24.142C19.5803 22.624 21.2287 21.865 23.498 21.865C25.7673 21.865 27.408 22.624 28.42 24.142C29.4473 25.66 29.961 27.7377 29.961 30.375C29.961 33.043 29.4473 35.136 28.42 36.654C27.408 38.172 25.7673 38.931 23.498 38.931C21.2287 38.931 19.5803 38.172 18.553 36.654C17.541 35.136 17.035 33.043 17.035 30.375ZM26.097 30.375C26.097 28.8263 25.9283 27.638 25.591 26.81C25.2537 25.9667 24.556 25.545 23.498 25.545C22.44 25.545 21.7423 25.9667 21.405 26.81C21.0677 27.638 20.899 28.8263 20.899 30.375C20.899 31.4177 20.9603 32.284 21.083 32.974C21.2057 33.6487 21.451 34.2007 21.819 34.63C22.2023 35.044 22.762 35.251 23.498 35.251C24.234 35.251 24.786 35.044 25.154 34.63C25.5373 34.2007 25.7903 33.6487 25.913 32.974C26.0357 32.284 26.097 31.4177 26.097 30.375ZM31.9009 35.849C32.4222 35.435 32.6599 35.2433 32.6139 35.274C34.1166 34.032 35.2972 33.0123 36.1559 32.215C37.0299 31.4177 37.7659 30.582 38.3639 29.708C38.9619 28.834 39.2609 27.983 39.2609 27.155C39.2609 26.5263 39.1152 26.0357 38.8239 25.683C38.5326 25.3303 38.0956 25.154 37.5129 25.154C36.9302 25.154 36.4702 25.3763 36.1329 25.821C35.8109 26.2503 35.6499 26.8637 35.6499 27.661H31.8549C31.8856 26.3577 32.1616 25.269 32.6829 24.395C33.2196 23.521 33.9172 22.877 34.7759 22.463C35.6499 22.049 36.6159 21.842 37.6739 21.842C39.4986 21.842 40.8709 22.3097 41.7909 23.245C42.7262 24.1803 43.1939 25.3993 43.1939 26.902C43.1939 28.5427 42.6342 30.0683 41.5149 31.479C40.3956 32.8743 38.9696 34.239 37.2369 35.573H43.4469V38.77H31.9009V35.849Z" fill="white"/>
</svg>
