<svg width="84" height="84" viewBox="0 0 84 84" fill="none" xmlns="http://www.w3.org/2000/svg">
<circle cx="42" cy="42" r="42" fill="#FFB800"/>
<path d="M62.4053 30.8261H56.5644V29.3395C57.6104 29.0278 58.5092 28.35 59.0964 27.4302C59.6837 26.5104 59.9202 25.4099 59.7626 24.3301C59.6051 23.2503 59.0641 22.2632 58.2385 21.5495C57.4129 20.8357 56.358 20.4429 55.2666 20.4429C54.1751 20.4429 53.1202 20.8357 52.2946 21.5495C51.469 22.2632 50.928 23.2503 50.7705 24.3301C50.6129 25.4099 50.8494 26.5104 51.4367 27.4302C52.0239 28.35 52.9227 29.0278 53.9687 29.3395V30.8261H30.6066V29.3395C31.6512 29.0267 32.5484 28.3487 33.1345 27.4293C33.7205 26.51 33.9564 25.4105 33.799 24.3317C33.6416 23.2529 33.1014 22.2667 32.277 21.553C31.4527 20.8394 30.3991 20.446 29.3087 20.4446C28.2171 20.4439 27.1617 20.8363 26.3357 21.5499C25.5098 22.2636 24.9685 23.2508 24.811 24.3309C24.6535 25.4109 24.8903 26.5116 25.478 27.4314C26.0657 28.3511 26.9651 29.0285 28.0115 29.3395V30.8261H22.1707C22.0854 30.826 22.0009 30.8428 21.9221 30.8754C21.8433 30.908 21.7716 30.9558 21.7113 31.0161C21.651 31.0764 21.6032 31.148 21.5706 31.2268C21.538 31.3056 21.5213 31.39 21.5214 31.4753V44.4522C21.5214 44.8114 21.8114 45.1014 22.1707 45.1014H28.0115V49.6437H25.6317V52.2391H28.0108V59.6805C28.0108 60.2612 26.7129 61.9707 26.7129 61.9707H31.9045C31.9045 61.9707 30.6066 60.2612 30.6066 59.6792V52.2384H53.9687V59.6798C53.9687 60.2612 52.6708 61.9707 52.6708 61.9707H57.8623C57.8623 61.9707 56.5644 60.2612 56.5644 59.6792V52.2384H58.9436V49.643H56.5644V45.1007H62.4053C62.4906 45.1008 62.5751 45.0841 62.6539 45.0515C62.7327 45.0189 62.8043 44.9711 62.8646 44.9108C62.9249 44.8505 62.9728 44.7789 63.0054 44.7001C63.038 44.6213 63.0547 44.5368 63.0546 44.4515V31.4746C63.0544 31.3026 62.9859 31.1376 62.8642 31.016C62.7424 30.8944 62.5774 30.8261 62.4053 30.8261ZM48.0738 32.1238H54.9315L50.1041 43.803H43.2477L48.0738 32.1238ZM26.0643 24.9869C26.0643 23.1964 27.5173 21.7423 29.3094 21.7423C31.1015 21.7423 32.5545 23.1964 32.5545 24.9869C32.5545 25.8474 32.2126 26.6727 31.604 27.2811C30.9955 27.8896 30.1701 28.2314 29.3094 28.2314C28.4488 28.2314 27.6234 27.8896 27.0148 27.2811C26.4062 26.6727 26.0643 25.8474 26.0643 24.9869ZM23.0062 43.6079C22.8865 43.4873 22.8193 43.3244 22.8193 43.1545V32.773C22.8193 32.4138 23.1093 32.1238 23.4685 32.1238H28.0226L23.0062 43.6079ZM29.3087 51.4168C29.1824 51.4168 29.0613 51.3667 28.972 51.2774C28.8826 51.1881 28.8325 51.067 28.8325 50.9407C28.8325 50.8144 28.8826 50.6933 28.972 50.604C29.0613 50.5147 29.1824 50.4645 29.3087 50.4645C29.435 50.4645 29.5562 50.5147 29.6455 50.604C29.7348 50.6933 29.785 50.8144 29.785 50.9407C29.785 51.067 29.7348 51.1881 29.6455 51.2774C29.5562 51.3667 29.435 51.4168 29.3087 51.4168ZM29.3454 43.803L34.4484 32.1238H41.3289L36.5015 43.803H29.3454ZM53.9687 49.643H30.6066V45.1007H53.9687V49.643ZM55.2666 51.4168C55.1402 51.4168 55.0191 51.3667 54.9298 51.2774C54.8405 51.1881 54.7903 51.067 54.7903 50.9407C54.7903 50.8144 54.8405 50.6933 54.9298 50.604C55.0191 50.5147 55.1402 50.4645 55.2666 50.4645C55.3929 50.4645 55.514 50.5147 55.6033 50.604C55.6926 50.6933 55.7428 50.8144 55.7428 50.9407C55.7428 51.067 55.6926 51.1881 55.6033 51.2774C55.514 51.3667 55.3929 51.4168 55.2666 51.4168ZM55.2666 28.2307C54.8404 28.2307 54.4184 28.1468 54.0247 27.9838C53.631 27.8207 53.2733 27.5817 52.9719 27.2804C52.6706 26.9791 52.4316 26.6215 52.2685 26.2278C52.1054 25.8342 52.0215 25.4123 52.0215 24.9862C52.0215 24.5601 52.1054 24.1382 52.2685 23.7445C52.4316 23.3509 52.6706 22.9932 52.9719 22.6919C53.2733 22.3906 53.631 22.1516 54.0247 21.9886C54.4184 21.8255 54.8404 21.7416 55.2666 21.7416C56.1272 21.7416 56.9526 22.0834 57.5612 22.6919C58.1697 23.3004 58.5116 24.1257 58.5116 24.9862C58.5116 25.8467 58.1697 26.672 57.5612 27.2804C56.9526 27.8889 56.1272 28.2307 55.2666 28.2307ZM61.756 43.1545C61.7561 43.2398 61.7394 43.3243 61.7068 43.4031C61.6742 43.4819 61.6264 43.5535 61.566 43.6138C61.5057 43.6741 61.4341 43.7219 61.3553 43.7545C61.2765 43.7871 61.192 43.8038 61.1067 43.8037H56.8503L61.5864 32.3446C61.6941 32.4615 61.7545 32.6141 61.756 32.773V43.1545Z" fill="white"/>
</svg>
